<svg xmlns="http://www.w3.org/2000/svg" viewBox="0 0 200 200"><defs><style>.cls-1{fill:none;}.cls-2{fill:#f4684d;}</style></defs><title>01d</title><g id="レイヤー_2" data-name="レイヤー 2"><g id="outlined"><rect class="cls-1" width="200" height="200"/><circle class="cls-2" cx="100" cy="100" r="43.14"/><path d="M100,149.14A49.14,49.14,0,1,1,149.14,100,49.19,49.19,0,0,1,100,149.14Zm0-86.28A37.14,37.14,0,1,0,137.14,100,37.18,37.18,0,0,0,100,62.86Z"/><path d="M100,45a6,6,0,0,1-6-6V19.36a6,6,0,0,1,12,0V39A6,6,0,0,1,100,45Z"/><path d="M56.86,62.86a6,6,0,0,1-4.24-1.76L38.74,47.22a6,6,0,0,1,8.48-8.48L61.1,52.62a6,6,0,0,1-4.24,10.24Z"/><path d="M39,106H19.36a6,6,0,0,1,0-12H39a6,6,0,1,1,0,12Z"/><path d="M43,163a6,6,0,0,1-4.24-10.24L52.62,138.9a6,6,0,1,1,8.48,8.48L47.22,161.26A6,6,0,0,1,43,163Z"/><path d="M100,186.64a6,6,0,0,1-6-6V161a6,6,0,0,1,12,0v19.63A6,6,0,0,1,100,186.64Z"/><path d="M157,163a6,6,0,0,1-4.24-1.76L138.9,147.38a6,6,0,1,1,8.48-8.48l13.88,13.88A6,6,0,0,1,157,163Z"/><path d="M180.64,106H161a6,6,0,0,1,0-12h19.63a6,6,0,0,1,0,12Z"/><path d="M143.14,62.86a6,6,0,0,1-4.24-10.24l13.88-13.88a6,6,0,0,1,8.48,8.48L147.38,61.1A6,6,0,0,1,143.14,62.86Z"/></g></g></svg>