<svg xmlns="http://www.w3.org/2000/svg" viewBox="0 0 200 200"><defs><style>.cls-1{fill:none;}.cls-2{fill:#ffb717;}</style></defs><title>01n</title><g id="レイヤー_2" data-name="レイヤー 2"><g id="outlined"><rect class="cls-1" width="200" height="200"/><path class="cls-2" d="M84.22,44.11c0-.7,0-1.39,0-2.08a56.89,56.89,0,1,0,68,84.3A83.72,83.72,0,0,1,84.22,44.11Z"/><path d="M104.66,158A62.89,62.89,0,0,1,82.09,36.43l8.37-3.22-.22,9c0,.64,0,1.28,0,1.93a77.7,77.7,0,0,0,63.12,76.32l8.84,1.68-4.94,7.52A62.77,62.77,0,0,1,104.66,158ZM78.52,51.49A50.87,50.87,0,0,0,104.66,146a50.7,50.7,0,0,0,37.12-16.08A89.77,89.77,0,0,1,78.52,51.49Z"/></g></g></svg>