<svg xmlns="http://www.w3.org/2000/svg" viewBox="0 0 200 200"><defs><style>.cls-1{fill:none;}.cls-2{fill:#f4684d;}.cls-3{fill:#fff;}</style></defs><title>02d</title><g id="レイヤー_2" data-name="レイヤー 2"><g id="outlined"><rect class="cls-1" width="200" height="200"/><circle class="cls-2" cx="145" cy="78.03" r="21.99"/><path d="M145,105.53a27.51,27.51,0,0,1-26.85-33.41h0A27.49,27.49,0,1,1,145,105.53Zm-16.11-31a16.5,16.5,0,1,0,7.23-10.35,16.5,16.5,0,0,0-7.23,10.35Z"/><path d="M152.58,48.18a4.58,4.58,0,0,1-1-.11,4.49,4.49,0,0,1-3.43-5.36l2.43-11.06a4.5,4.5,0,0,1,8.79,1.94l-2.43,11A4.51,4.51,0,0,1,152.58,48.18Z"/><path d="M126.07,52.89a4.51,4.51,0,0,1-3.8-2.08l-6.1-9.54a4.5,4.5,0,0,1,7.59-4.85L129.85,46a4.51,4.51,0,0,1-3.78,6.93Z"/><path d="M190.42,92.54a4.57,4.57,0,0,1-1-.1L178.39,90a4.5,4.5,0,0,1,1.94-8.79l11,2.44a4.5,4.5,0,0,1-1,8.89Z"/><path d="M174.66,63.59a4.5,4.5,0,0,1-2.43-8.29l9.54-6.09a4.5,4.5,0,1,1,4.84,7.58l-9.54,6.09A4.47,4.47,0,0,1,174.66,63.59Z"/><path class="cls-3" d="M152.49,93.07a24.66,24.66,0,0,0-12.72,3.52A42.45,42.45,0,0,0,58.53,83.06a30.63,30.63,0,0,0-4.82-.39,29.9,29.9,0,0,0,0,59.79h98.78a24.7,24.7,0,0,0,0-49.39Z"/><path d="M152.49,148.46H53.71A35.9,35.9,0,1,1,55,76.69a48.45,48.45,0,0,1,89.46,11.45,30.7,30.7,0,1,1,8.05,60.32ZM53.71,88.67a23.9,23.9,0,0,0,0,47.79h98.78a18.7,18.7,0,1,0-9.62-34.73l-8.31,5-.77-9.66A36.45,36.45,0,0,0,64,85.46l-1.86,4.27L57.57,89A24,24,0,0,0,53.71,88.67Z"/></g></g></svg>