<svg xmlns="http://www.w3.org/2000/svg" viewBox="0 0 200 200"><defs><style>.cls-1{fill:none;}.cls-2{fill:#ffb717;}.cls-3{fill:#fff;}</style></defs><title>02n</title><g id="レイヤー_2" data-name="レイヤー 2"><g id="outlined"><rect class="cls-1" width="200" height="200"/><path class="cls-2" d="M149,41.65c0-.37,0-.73,0-1.09a29.67,29.67,0,1,0,35.46,44A43.66,43.66,0,0,1,149,41.65Z"/><path d="M159.61,102.43a34.18,34.18,0,0,1-12.27-66.07L153.61,34l-.15,6.72c0,.32,0,.65,0,1a39.16,39.16,0,0,0,31.81,38.46l6.62,1.26L188.18,87A34.1,34.1,0,0,1,159.61,102.43ZM144.85,47.88a25.16,25.16,0,0,0,14.76,45.55A25.1,25.1,0,0,0,176.4,87,48.21,48.21,0,0,1,144.85,47.88Z"/><path class="cls-3" d="M152.49,93.07a24.66,24.66,0,0,0-12.72,3.52A42.45,42.45,0,0,0,58.53,83.06a30.63,30.63,0,0,0-4.82-.39,29.9,29.9,0,0,0,0,59.79h98.78a24.7,24.7,0,0,0,0-49.39Z"/><path d="M152.49,148.46H53.71a35.9,35.9,0,0,1,0-71.79l1.27,0a48.45,48.45,0,0,1,89.46,11.45,30.7,30.7,0,1,1,8.05,60.32ZM53.71,88.67a23.9,23.9,0,0,0,0,47.79h98.78a18.7,18.7,0,1,0-9.62-34.73l-8.31,5-.77-9.66A36.45,36.45,0,0,0,64,85.46l-1.86,4.27L57.57,89A24,24,0,0,0,53.71,88.67Z"/></g></g></svg>