<svg xmlns="http://www.w3.org/2000/svg" viewBox="0 0 200 200"><defs><style>.cls-1{fill:none;}.cls-2{fill:#fff;}</style></defs><title>03d</title><g id="レイヤー_2" data-name="レイヤー 2"><g id="outlined"><rect class="cls-1" width="200" height="200"/><path class="cls-2" d="M159.5,92a28.42,28.42,0,0,0-14.67,4.06A49,49,0,0,0,51.06,80.45,35.06,35.06,0,0,0,45.5,80a34.5,34.5,0,0,0,0,69h114a28.5,28.5,0,0,0,0-57Z"/><path d="M159.5,155H45.5a40.5,40.5,0,0,1,0-81c.67,0,1.33,0,2,0a55,55,0,0,1,102,13.42,34.5,34.5,0,1,1,10,67.53ZM45.5,86a28.5,28.5,0,0,0,0,57h114a22.5,22.5,0,1,0-11.58-41.79l-8.3,5-.77-9.66A43,43,0,0,0,56.57,82.85L54.7,87.12l-4.6-.74A28.64,28.64,0,0,0,45.5,86Z"/></g></g></svg>