<svg xmlns="http://www.w3.org/2000/svg" viewBox="0 0 200 200"><defs><style>.cls-1{fill:none;}.cls-2{fill:#fff;}.cls-3{fill:#7078e0;}</style></defs><title>04n</title><g id="レイヤー_2" data-name="レイヤー 2"><g id="outlined"><rect class="cls-1" width="200" height="200"/><path class="cls-2" d="M152.49,93.07a24.66,24.66,0,0,0-12.72,3.52A42.45,42.45,0,0,0,58.53,83.06a30.63,30.63,0,0,0-4.82-.39,29.9,29.9,0,0,0,0,59.79h98.78a24.7,24.7,0,0,0,0-49.39Z"/><path d="M152.49,148.46H53.71A35.9,35.9,0,1,1,55,76.69a48.45,48.45,0,0,1,89.46,11.45,30.7,30.7,0,1,1,8.05,60.32ZM53.71,88.67a23.9,23.9,0,0,0,0,47.79h98.78a18.7,18.7,0,1,0-9.62-34.73l-8.31,5-.77-9.66A36.44,36.44,0,0,0,64,85.46l-1.87,4.27L57.57,89A24,24,0,0,0,53.71,88.67Z"/><path class="cls-3" d="M97.47,47.54a52.78,52.78,0,0,1,49.76,35.93,34.12,34.12,0,0,1,5.26-.4,34.74,34.74,0,0,1,33.26,24.86,24.7,24.7,0,0,0-34.38-33A42.44,42.44,0,0,0,75.44,52.42,52.32,52.32,0,0,1,97.47,47.54Z"/><path class="cls-3" d="M52.68,72.68a52.83,52.83,0,0,1,9.58-11.53,29.88,29.88,0,0,0-22.37,14A40,40,0,0,1,52.68,72.68Z"/></g></g></svg>