<svg xmlns="http://www.w3.org/2000/svg" viewBox="0 0 200 200"><defs><style>.cls-1{fill:none;}.cls-2{fill:#3891e8;}</style></defs><title>09n</title><g id="レイヤー_2" data-name="レイヤー 2"><g id="outlined"><path class="cls-1" d="M160,92a28.42,28.42,0,0,0-14.67,4.06A49,49,0,0,0,51.56,80.45,35.06,35.06,0,0,0,46,80a34.5,34.5,0,0,0,0,69H160a28.5,28.5,0,0,0,0-57Z"/><rect class="cls-1" width="200" height="200"/><path d="M159.5,155H146.72a6,6,0,0,1,0-12H159.5a22.5,22.5,0,1,0-11.58-41.79l-8.3,5-.77-9.66A43,43,0,0,0,56.57,82.85L54.7,87.12l-4.6-.74A28.5,28.5,0,1,0,45.5,143a6,6,0,0,1,0,12,40.5,40.5,0,0,1,0-81c.67,0,1.33,0,2,0a55,55,0,0,1,102,13.42,34.5,34.5,0,1,1,10,67.53Z"/><path class="cls-2" d="M65.29,182.9a3.68,3.68,0,0,1-.66-.06,4,4,0,0,1-3.29-4.59l8-48.39a4,4,0,0,1,7.89,1.31l-8,48.38A4,4,0,0,1,65.29,182.9Z"/><path class="cls-2" d="M83.72,182.9a3.68,3.68,0,0,1-.66-.06,4,4,0,0,1-3.29-4.59l8-48.39a4,4,0,1,1,7.89,1.31l-8,48.38A4,4,0,0,1,83.72,182.9Z"/><path class="cls-2" d="M102.15,182.9a3.68,3.68,0,0,1-.66-.06,4,4,0,0,1-3.29-4.59l8-48.39a4,4,0,1,1,7.89,1.31l-8,48.38A4,4,0,0,1,102.15,182.9Z"/><path class="cls-2" d="M120.58,182.9a3.68,3.68,0,0,1-.66-.06,4,4,0,0,1-3.29-4.59l8-48.39a4,4,0,0,1,7.89,1.31l-8,48.38A4,4,0,0,1,120.58,182.9Z"/></g></g></svg>