<svg xmlns="http://www.w3.org/2000/svg" viewBox="0 0 200 200"><defs><style>.cls-1{fill:#fff;}.cls-2{fill:none;}.cls-3{fill:#3891e8;}</style></defs><title>10n</title><g id="レイヤー_2" data-name="レイヤー 2"><g id="outlined"><path class="cls-1" d="M160,92a28.42,28.42,0,0,0-14.67,4.06A49,49,0,0,0,51.56,80.45,35.06,35.06,0,0,0,46,80a34.5,34.5,0,0,0,0,69H160a28.5,28.5,0,0,0,0-57Z"/><rect class="cls-2" width="200" height="200"/><path d="M159.5,155H146.72a6,6,0,0,1,0-12H159.5a22.5,22.5,0,1,0-11.58-41.79l-8.3,5-.77-9.66A43,43,0,0,0,56.57,82.85L54.7,87.12l-4.6-.74A28.5,28.5,0,1,0,45.5,143a6,6,0,0,1,0,12,40.5,40.5,0,0,1,0-81c.67,0,1.33,0,2,0a55,55,0,0,1,102,13.42,34.5,34.5,0,1,1,10,67.53Z"/><path class="cls-3" d="M69.37,163.19a5.67,5.67,0,0,1-.82-.07,5,5,0,0,1-4.12-5.75l.65-3.94A5,5,0,0,1,75,155.06L74.3,159A5,5,0,0,1,69.37,163.19Zm3.26-19.73a5.76,5.76,0,0,1-.82-.06,5,5,0,0,1-4.12-5.75l1.31-7.9a5,5,0,0,1,9.86,1.63l-1.3,7.9A5,5,0,0,1,72.63,143.46Z"/><path class="cls-3" d="M85.75,171.92a5.07,5.07,0,0,1-.94-.09,5,5,0,0,1-4-5.84l1.5-7.86A5,5,0,1,1,92.15,160l-1.49,7.86A5,5,0,0,1,85.75,171.92Zm4.48-23.58a5.07,5.07,0,0,1-.94-.09,5,5,0,0,1-4-5.84l1.49-7.86a5,5,0,1,1,9.82,1.87l-1.49,7.86A5,5,0,0,1,90.23,148.34Z"/><path class="cls-3" d="M106,164.72a4.54,4.54,0,0,1-.82-.07A5,5,0,0,1,101,158.9l.9-5.47a5,5,0,0,1,9.87,1.63l-.91,5.47A5,5,0,0,1,106,164.72Zm3.51-21.26a5.76,5.76,0,0,1-.82-.06,5,5,0,0,1-4.12-5.75l1.31-7.9a5,5,0,1,1,9.86,1.64l-1.3,7.89A5,5,0,0,1,109.49,143.46Z"/><path class="cls-3" d="M122,179a4.62,4.62,0,0,1-.82-.07,5,5,0,0,1-4.12-5.75l1.31-7.89a5,5,0,1,1,9.86,1.63l-1.3,7.89A5,5,0,0,1,122,179ZM126,155.35a4.54,4.54,0,0,1-.82-.07,5,5,0,0,1-4.12-5.75l1.31-7.89a5,5,0,1,1,9.86,1.63l-1.31,7.89A5,5,0,0,1,126,155.35Z"/></g></g></svg>