<svg xmlns="http://www.w3.org/2000/svg" viewBox="0 0 200 200"><defs><style>.cls-1,.cls-2{fill:none;}.cls-2{stroke:#000;stroke-linecap:round;stroke-miterlimit:10;stroke-width:8px;}.cls-3{fill:#fff;}</style></defs><title>13d</title><g id="レイヤー_2" data-name="レイヤー 2"><g id="outlined"><rect class="cls-1" width="200" height="200"/><line class="cls-2" x1="139.07" y1="109" x2="171.25" y2="76.83"/><path class="cls-3" d="M137.44,91.76a44.68,44.68,0,1,0-74.88,0,54.92,54.92,0,0,0-17.63,40.38c0,30.41,24.65,49.07,55.07,49.07s55.07-18.66,55.07-49.07A54.92,54.92,0,0,0,137.44,91.76Z"/><path d="M100,187.21c-16.57,0-31.78-5.17-42.83-14.56-11.76-10-18.24-24.38-18.24-40.51A61.31,61.31,0,0,1,55.06,90.8a50.68,50.68,0,1,1,89.88,0,61.31,61.31,0,0,1,16.13,41.34c0,16.13-6.48,30.51-18.24,40.51C131.78,182,116.57,187.21,100,187.21Zm0-158.49A38.66,38.66,0,0,0,67.59,88.48l2.76,4.24-3.71,3.44a49.25,49.25,0,0,0-15.71,36c0,25.36,20.18,43.07,49.07,43.07s49.07-17.71,49.07-43.07a49.25,49.25,0,0,0-15.71-36l-3.71-3.44,2.76-4.24A38.66,38.66,0,0,0,100,28.72Z"/><line class="cls-2" x1="181.25" y1="91.52" x2="157.41" y2="90.67"/><circle cx="86.77" cy="67.39" r="5.71"/><circle cx="111.41" cy="67.39" r="5.71"/></g></g></svg>