<svg xmlns="http://www.w3.org/2000/svg" viewBox="0 0 200 200"><defs><style>.cls-1{fill:none;}.cls-2{fill:#666;}.cls-3{fill:#999;}</style></defs><title>50n</title><g id="レイヤー_2" data-name="レイヤー 2"><g id="outlined"><rect class="cls-1" width="200" height="200"/><path d="M60.71,81.37A139.25,139.25,0,0,1,22.17,76.2a6,6,0,0,1,3.3-11.54c29.28,8.37,57.37,3.7,79.94,0l2.62-.44c25.26-4.22,49.11-8.2,71.38.72A6,6,0,0,1,175,76C155.8,68.36,134.58,71.9,110,76l-2.64.44C93.56,78.74,77.77,81.37,60.71,81.37Z"/><path class="cls-2" d="M60.71,110.92a139.23,139.23,0,0,1-38.54-5.16,6,6,0,0,1,3.3-11.54c29.28,8.37,57.37,3.7,79.94-.06l2.62-.43c25.26-4.22,49.11-8.2,71.38.71A6,6,0,0,1,175,105.58c-19.15-7.66-40.37-4.12-64.94,0l-2.64.44C93.56,108.3,77.77,110.92,60.71,110.92Z"/><path class="cls-3" d="M60.71,140.48a138.88,138.88,0,0,1-38.54-5.17,6,6,0,1,1,3.3-11.53c29.28,8.37,57.37,3.7,79.94-.06l2.62-.44c25.26-4.21,49.11-8.19,71.38.72A6,6,0,1,1,175,135.14c-19.15-7.66-40.37-4.12-64.94,0l-2.64.44C93.56,137.86,77.77,140.48,60.71,140.48Z"/></g></g></svg>