<svg xmlns="http://www.w3.org/2000/svg" viewBox="0 0 200 200"><defs><style>.cls-1{fill:none;}.cls-2{fill:#606060;}.cls-3{fill:#d83625;}</style></defs><title>thermometer-50</title><g id="レイヤー_2" data-name="レイヤー 2"><g id="outlined"><rect class="cls-1" width="200" height="200"/><path class="cls-2" d="M100,189.17a39.68,39.68,0,0,1-21-73.36V38a21,21,0,0,1,42,0v77.78a39.68,39.68,0,0,1-21,73.36ZM100,29a9,9,0,0,0-9,9v85l-3.32,1.65a27.69,27.69,0,1,0,24.64,0L109,123V38A9,9,0,0,0,100,29Z"/><path class="cls-3" d="M105,129.84V78.06H95v51.78a20.29,20.29,0,1,0,10,0Z"/></g></g></svg>